#!OML:ASF H:\LiuWeirdWalks\Patient Classification 1\Patient 1\Session 1\male.ASF
:FULLY-SPECIFIED
:DEGREES
140
root 1.49911 17.5531 -28.5631 8.94687 3.91534 -4.67183
lowerback 11.6132 0.0919894 -4.01347
upperback 0.841903 -0.202886 3.28449
thorax -5.61241 0.0405724 5.78528
lowerneck -19.8073 -1.89583 2.92909
upperneck 23.5794 -3.15235 -1.68586
head 10.8033 -1.3795 -1.56727
rclavicle -1.25483e-014 -8.17502e-015
rhumerus -39.7943 -5.86999 -76.4656
rradius 40.1762
rwrist -8.20232
rhand -14.5627 -6.4024
rfingers 7.12502
rthumb 11.5865 -36.0621
lclavicle -1.25483e-014 -8.17502e-015
lhumerus -30.9952 4.22145 79.2792
lradius 32.1204
lwrist 3.85105
lhand -14.5348 -4.66709
lfingers 7.12502
lthumb 11.6134 24.9911
rfemur -22.3807 -13.7574 18.3528
rtibia 74.2587
rfoot -5.61611 -11.3877
rtoes -8.02676
lfemur -20.6405 7.06053 -20.6341
ltibia 37.8811
lfoot -22.6138 0.52131
ltoes -8.03494
141
root 1.49425 17.538 -28.5498 8.93599 4.03666 -4.59907
lowerback 11.8207 0.175909 -4.0096
upperback 0.901854 -0.103737 3.16769
thorax -5.6778 0.0884809 5.64428
lowerneck -19.7986 -2.0899 2.83038
upperneck 23.3969 -3.4528 -1.45493
head 10.7332 -1.49853 -1.50798
rclavicle -1.07965e-014 1.99282e-014
rhumerus -39.7597 -6.09653 -76.5531
rradius 40.237
rwrist -8.17374
rhand -14.5421 -6.37171
rfingers 7.12502
rthumb 11.6064 -36.0303
lclavicle -1.07965e-014 1.99282e-014
lhumerus -30.8454 3.99778 79.256
lradius 32.0838
lwrist 3.81679
lhand -14.5619 -4.84916
lfingers 7.12502
lthumb 11.5872 24.8105
rfemur -23.3388 -14.0506 18.489
rtibia 74.238
rfoot -6.48365 -11.6019
rtoes -8.2795
lfemur -20.7685 7.04336 -20.6849
ltibia 38.2401
lfoot -22.7646 0.49238
ltoes -8.14051
142
root 1.48883 17.5223 -28.5365 8.91579 4.14492 -4.53259
lowerback 12.0428 0.224588 -4.04356
upperback 0.95773 -0.0543464 3.09691
thorax -5.74892 0.113641 5.58264
lowerneck -19.7774 -2.17977 2.78779
upperneck 23.1851 -3.59534 -1.32806
head 10.6515 -1.55467 -1.47175
rclavicle -1.0312e-014 -1.13804e-014
rhumerus -39.693 -6.13676 -76.6398
rradius 40.3019
rwrist -8.16786
rhand -14.5391 -6.38662
rfingers 7.12502
rthumb 11.6092 -36.045
lclavicle -1.0312e-014 -1.13804e-014
lhumerus -30.7612 3.93013 79.2418
lradius 32.062
lwrist 3.78411
lhand -14.6394 -4.92845
lfingers 7.12502
lthumb 11.5125 24.7354
rfemur -24.3315 -14.3169 18.6442
rtibia 74.1975
rfoot -7.26445 -11.836
rtoes -8.48162
lfemur -20.8939 7.01673 -20.7254
ltibia 38.6154
lfoot -22.9275 0.475475
ltoes -8.24845
143
root 1.48273 17.5059 -28.5232 8.89337 4.23684 -4.47082
lowerback 12.2556 0.0625184 -4.25092
upperback 1.00228 -0.294376 3.2579
thorax -5.78838 0.00310671 5.91933
lowerneck -19.9025 -1.81195 2.88442
upperneck 23.0503 -3.00624 -1.72673
head 10.6305 -1.32975 -1.54498
rclavicle -5.36719e-015 5.51627e-015
rhumerus -39.4334 -5.23545 -76.7178
rradius 40.3494
rwrist -8.26425
rhand -14.5392 -6.44754
rfingers 7.12502
rthumb 11.6092 -36.106
lclavicle -5.36719e-015 5.51627e-015
lhumerus -30.9595 4.77867 79.2456
lradius 32.0858
lwrist 3.67181
lhand -14.7214 -4.94753
lfingers 7.12502
lthumb 11.4334 24.7207
rfemur -25.3664 -14.5504 18.8172
rtibia 74.1362
rfoot -7.96687 -12.0848
rtoes -8.73637
lfemur -21.0242 6.99371 -20.759
ltibia 39.0048
lfoot -23.0884 0.477285
ltoes -8.44359
144
root 1.4759 17.489 -28.5098 8.87034 4.3074 -4.41118
lowerback 12.4728 -0.0950533 -4.47865
upperback 1.03658 -0.531864 3.42225
thorax -5.83794 -0.104989 6.27335
lowerneck -19.9958 -1.41846 3.01628
upperneck 22.9267 -2.38696 -2.14786
head 10.6113 -1.09041 -1.62733
rclavicle 8.55395e-015 -3.08116e-015
rhumerus -39.2037 -4.29709 -76.7935
rradius 40.4287
rwrist -8.38671
rhand -14.5437 -6.50958
rfingers 7.12502
rthumb 11.6048 -36.1682
lclavicle 8.55395e-015 -3.08116e-015
lhumerus -31.1873 5.62539 79.2472
lradius 32.1074
lwrist 3.55496
lhand -14.8308 -4.89105
lfingers 7.12502
lthumb 11.3279 24.783
rfemur -26.4445 -14.751 19.0035
rtibia 74.0547
rfoot -8.59204 -12.3404
rtoes -9.06558
lfemur -21.1584 6.98049 -20.7896
ltibia 39.4054
lfoot -23.2424 0.485019
ltoes -8.69078
145
root 1.4684 17.4716 -28.496 8.84643 4.36741 -4.34847
lowerback 12.7032 -0.246094 -4.72146
upperback 1.06567 -0.764221 3.58397
thorax -5.8975 -0.209601 6.63508
lowerneck -20.1018 -1.02061 3.14228
upperneck 22.8409 -1.76676 -2.54862
head 10.6129 -0.847997 -1.70198
rclavicle -5.30817e-015 5.29264e-015
rhumerus -38.9936 -3.35188 -76.8633
rradius 40.535
rwrist -8.52538
rhand -14.5484 -6.57529
rfingers 7.12502
rthumb 11.6003 -36.2342
lclavicle -5.30817e-015 5.29264e-015
lhumerus -31.4322 6.44469 79.251
lradius 32.1373
lwrist 3.44759
lhand -14.9359 -4.78163
lfingers 7.12502
lthumb 11.2266 24.898
rfemur -27.5561 -14.9304 19.1921
rtibia 73.951
rfoot -9.17321 -12.5959
rtoes -9.40121
lfemur -21.2977 6.97235 -20.8237
ltibia 39.816
lfoot -23.3938 0.519696
ltoes -9.01416
